<svg width="24" height="24" viewBox="0 0 24 24" fill="none" xmlns="http://www.w3.org/2000/svg">
<g clip-path="url(#clip0_1_56)">
<path d="M21.0001 17.5C20.6022 17.5 20.2207 17.342 19.9394 17.0607C19.6581 16.7794 19.5001 16.3978 19.5001 16V11.138C19.5578 9.23909 18.9342 7.38218 17.7421 5.903C16.5499 4.42382 14.8679 3.41999 13.0001 3.073V1C13.0001 0.734784 12.8947 0.48043 12.7072 0.292893C12.5196 0.105357 12.2653 0 12.0001 0C11.7348 0 11.4805 0.105357 11.293 0.292893C11.1054 0.48043 11.0001 0.734784 11.0001 1V3.073C9.13223 3.41999 7.45019 4.42382 6.25804 5.903C5.06589 7.38218 4.44232 9.23909 4.50006 11.138V16C4.50006 16.3978 4.34203 16.7794 4.06072 17.0607C3.77942 17.342 3.39789 17.5 3.00006 17.5C2.73484 17.5 2.48049 17.6054 2.29295 17.7929C2.10542 17.9804 2.00006 18.2348 2.00006 18.5C2.00006 18.7652 2.10542 19.0196 2.29295 19.2071C2.48049 19.3946 2.73484 19.5 3.00006 19.5H21.0001C21.2653 19.5 21.5196 19.3946 21.7072 19.2071C21.8947 19.0196 22.0001 18.7652 22.0001 18.5C22.0001 18.2348 21.8947 17.9804 21.7072 17.7929C21.5196 17.6054 21.2653 17.5 21.0001 17.5Z" fill="white"/>
<path d="M14.2361 21H9.76407C9.70269 21.0001 9.64349 21.0228 9.59775 21.0637C9.55202 21.1047 9.52294 21.161 9.51607 21.222C9.50517 21.3143 9.49983 21.4071 9.50007 21.5C9.50007 22.163 9.76346 22.7989 10.2323 23.2678C10.7011 23.7366 11.337 24 12.0001 24C12.6631 24 13.299 23.7366 13.7678 23.2678C14.2367 22.7989 14.5001 22.163 14.5001 21.5C14.5003 21.4071 14.495 21.3143 14.4841 21.222C14.4776 21.1608 14.4487 21.1042 14.4028 21.0632C14.357 21.0222 14.2976 20.9997 14.2361 21Z" fill="white"/>
</g>
<defs>
<clipPath id="clip0_1_56">
<rect width="24" height="24" fill="white"/>
</clipPath>
</defs>
</svg>
