<svg width="20" height="20" viewBox="0 0 20 20" fill="none" xmlns="http://www.w3.org/2000/svg">
<g opacity="0.6" clip-path="url(#clip0_1_109)">
<path d="M2.02917 9.16666H0.833333C0.61232 9.16666 0.400358 9.25445 0.244078 9.41073C0.0877974 9.56701 0 9.77898 0 9.99999C0 10.221 0.0877974 10.433 0.244078 10.5892C0.400358 10.7455 0.61232 10.8333 0.833333 10.8333H2.02917C2.25018 10.8333 2.46214 10.7455 2.61842 10.5892C2.7747 10.433 2.8625 10.221 2.8625 9.99999C2.8625 9.77898 2.7747 9.56701 2.61842 9.41073C2.46214 9.25445 2.25018 9.16666 2.02917 9.16666Z" fill="white"/>
<path d="M2.02917 13.3333H0.833333C0.61232 13.3333 0.400358 13.4211 0.244078 13.5774C0.0877974 13.7337 0 13.9457 0 14.1667C0 14.3877 0.0877974 14.5997 0.244078 14.7559C0.400358 14.9122 0.61232 15 0.833333 15H2.02917C2.25018 15 2.46214 14.9122 2.61842 14.7559C2.7747 14.5997 2.8625 14.3877 2.8625 14.1667C2.8625 13.9457 2.7747 13.7337 2.61842 13.5774C2.46214 13.4211 2.25018 13.3333 2.02917 13.3333Z" fill="white"/>
<path d="M2.02917 5.41666H0.833333C0.61232 5.41666 0.400358 5.50445 0.244078 5.66073C0.0877974 5.81701 0 6.02898 0 6.24999C0 6.471 0.0877974 6.68296 0.244078 6.83924C0.400358 6.99553 0.61232 7.08332 0.833333 7.08332H2.02917C2.25018 7.08332 2.46214 6.99553 2.61842 6.83924C2.7747 6.68296 2.8625 6.471 2.8625 6.24999C2.8625 6.02898 2.7747 5.81701 2.61842 5.66073C2.46214 5.50445 2.25018 5.41666 2.02917 5.41666Z" fill="white"/>
<path d="M19.1667 9.16666H17.9708C17.7498 9.16666 17.5379 9.25445 17.3816 9.41073C17.2253 9.56701 17.1375 9.77898 17.1375 9.99999C17.1375 10.221 17.2253 10.433 17.3816 10.5892C17.5379 10.7455 17.7498 10.8333 17.9708 10.8333H19.1667C19.3877 10.8333 19.5997 10.7455 19.7559 10.5892C19.9122 10.433 20 10.221 20 9.99999C20 9.77898 19.9122 9.56701 19.7559 9.41073C19.5997 9.25445 19.3877 9.16666 19.1667 9.16666Z" fill="white"/>
<path d="M17.9708 7.08332H19.1667C19.3877 7.08332 19.5997 6.99553 19.7559 6.83924C19.9122 6.68296 20 6.471 20 6.24999C20 6.02898 19.9122 5.81701 19.7559 5.66073C19.5997 5.50445 19.3877 5.41666 19.1667 5.41666H17.9708C17.7498 5.41666 17.5379 5.50445 17.3816 5.66073C17.2253 5.81701 17.1375 6.02898 17.1375 6.24999C17.1375 6.471 17.2253 6.68296 17.3816 6.83924C17.5379 6.99553 17.7498 7.08332 17.9708 7.08332Z" fill="white"/>
<path d="M19.1667 13.3333H17.9708C17.7498 13.3333 17.5379 13.4211 17.3816 13.5774C17.2253 13.7337 17.1375 13.9457 17.1375 14.1667C17.1375 14.3877 17.2253 14.5997 17.3816 14.7559C17.5379 14.9122 17.7498 15 17.9708 15H19.1667C19.3877 15 19.5997 14.9122 19.7559 14.7559C19.9122 14.5997 20 14.3877 20 14.1667C20 13.9457 19.9122 13.7337 19.7559 13.5774C19.5997 13.4211 19.3877 13.3333 19.1667 13.3333Z" fill="white"/>
<path d="M9.99999 2.8625C10.221 2.8625 10.433 2.7747 10.5892 2.61842C10.7455 2.46214 10.8333 2.25018 10.8333 2.02917V0.833333C10.8333 0.61232 10.7455 0.400358 10.5892 0.244078C10.433 0.0877974 10.221 0 9.99999 0C9.77898 0 9.56701 0.0877974 9.41073 0.244078C9.25445 0.400358 9.16666 0.61232 9.16666 0.833333V2.02917C9.16666 2.25018 9.25445 2.46214 9.41073 2.61842C9.56701 2.7747 9.77898 2.8625 9.99999 2.8625Z" fill="white"/>
<path d="M6.24999 2.8625C6.471 2.8625 6.68296 2.7747 6.83924 2.61842C6.99552 2.46214 7.08332 2.25018 7.08332 2.02917V0.833333C7.08332 0.61232 6.99552 0.400358 6.83924 0.244078C6.68296 0.0877974 6.471 0 6.24999 0C6.02898 0 5.81701 0.0877974 5.66073 0.244078C5.50445 0.400358 5.41666 0.61232 5.41666 0.833333V2.02917C5.41666 2.25018 5.50445 2.46214 5.66073 2.61842C5.81701 2.7747 6.02898 2.8625 6.24999 2.8625Z" fill="white"/>
<path d="M13.75 2.8625C13.971 2.8625 14.183 2.7747 14.3392 2.61842C14.4955 2.46214 14.5833 2.25018 14.5833 2.02917V0.833333C14.5833 0.61232 14.4955 0.400358 14.3392 0.244078C14.183 0.0877974 13.971 0 13.75 0C13.529 0 13.317 0.0877974 13.1607 0.244078C13.0045 0.400358 12.9167 0.61232 12.9167 0.833333V2.02917C12.9167 2.25018 13.0045 2.46214 13.1607 2.61842C13.317 2.7747 13.529 2.8625 13.75 2.8625Z" fill="white"/>
<path d="M9.99999 17.1383C9.77898 17.1383 9.56701 17.2261 9.41073 17.3824C9.25445 17.5387 9.16666 17.7507 9.16666 17.9717V19.1667C9.16666 19.3877 9.25445 19.5996 9.41073 19.7559C9.56701 19.9122 9.77898 20 9.99999 20C10.221 20 10.433 19.9122 10.5892 19.7559C10.7455 19.5996 10.8333 19.3877 10.8333 19.1667V17.9717C10.8333 17.7507 10.7455 17.5387 10.5892 17.3824C10.433 17.2261 10.221 17.1383 9.99999 17.1383Z" fill="white"/>
<path d="M13.75 17.1383C13.529 17.1383 13.317 17.2261 13.1607 17.3824C13.0045 17.5387 12.9167 17.7507 12.9167 17.9717V19.1667C12.9167 19.3877 13.0045 19.5996 13.1607 19.7559C13.317 19.9122 13.529 20 13.75 20C13.971 20 14.183 19.9122 14.3392 19.7559C14.4955 19.5996 14.5833 19.3877 14.5833 19.1667V17.9717C14.5833 17.7507 14.4955 17.5387 14.3392 17.3824C14.183 17.2261 13.971 17.1383 13.75 17.1383Z" fill="white"/>
<path d="M6.24999 17.1383C6.02898 17.1383 5.81701 17.2261 5.66073 17.3824C5.50445 17.5387 5.41666 17.7507 5.41666 17.9717V19.1667C5.41666 19.3877 5.50445 19.5996 5.66073 19.7559C5.81701 19.9122 6.02898 20 6.24999 20C6.471 20 6.68296 19.9122 6.83924 19.7559C6.99552 19.5996 7.08332 19.3877 7.08332 19.1667V17.9717C7.08332 17.7507 6.99552 17.5387 6.83924 17.3824C6.68296 17.2261 6.471 17.1383 6.24999 17.1383Z" fill="white"/>
<path d="M15.0558 3.75H4.94417C4.62745 3.75044 4.32383 3.87651 4.09996 4.10055C3.87608 4.32458 3.75022 4.62828 3.75 4.945V15.0558C3.75066 15.3723 3.87669 15.6757 4.10049 15.8995C4.3243 16.1233 4.62766 16.2493 4.94417 16.25H15.0558C15.3723 16.2493 15.6757 16.1233 15.8995 15.8995C16.1233 15.6757 16.2493 15.3723 16.25 15.0558V4.945C16.2498 4.62828 16.1239 4.32458 15.9 4.10055C15.6762 3.87651 15.3726 3.75044 15.0558 3.75ZM13.75 12.9167C13.75 13.1377 13.6622 13.3496 13.5059 13.5059C13.3496 13.6622 13.1377 13.75 12.9167 13.75H10.8333C10.6123 13.75 10.4004 13.6622 10.2441 13.5059C10.0878 13.3496 10 13.1377 10 12.9167C10 12.6957 10.0878 12.4837 10.2441 12.3274C10.4004 12.1711 10.6123 12.0833 10.8333 12.0833H12.9167C13.1377 12.0833 13.3496 12.1711 13.5059 12.3274C13.6622 12.4837 13.75 12.6957 13.75 12.9167Z" fill="white"/>
</g>
<defs>
<clipPath id="clip0_1_109">
<rect width="20" height="20" fill="white"/>
</clipPath>
</defs>
</svg>
