<svg width="20" height="20" viewBox="0 0 20 20" fill="none" xmlns="http://www.w3.org/2000/svg">
<g opacity="0.6">
<path d="M13.8348 17.7333L13.2348 17.3C12.7015 16.9333 12.4348 16.2333 12.6015 15.5667V15.5334V15.1667H7.30147L7.40147 15.5667C7.56815 16.2334 7.30147 16.9334 6.76815 17.3L6.16815 17.7333C5.83483 17.9666 6.00147 18.5 6.40147 18.5H13.6015C14.0015 18.5 14.1682 17.9667 13.8348 17.7333ZM7.20147 17.8333C7.83479 17.3666 8.16815 16.6 8.10147 15.8333C8.10147 15.8333 11.8682 15.7 11.8682 15.8333C11.8348 16.6 12.1682 17.3666 12.7682 17.8333C12.8015 17.8333 7.20147 17.8333 7.20147 17.8333Z" fill="white"/>
<path d="M18.5 0.5H1.5C0.66668 0.5 0 1.16668 0 2V12.8333H20V2C20 1.16668 19.3333 0.5 18.5 0.5ZM19.3333 12.1667H0.66668V2C0.66668 1.53332 1.03336 1.16668 1.5 1.16668H18.5C18.9667 1.16668 19.3333 1.53336 19.3333 2V12.1667Z" fill="white"/>
<path d="M13.8322 17.8333H6.16557C5.69889 17.8333 5.33224 18.2 5.33224 18.6666C5.33224 19.1333 5.69892 19.5 6.16557 19.5H13.8322C14.2989 19.5 14.6656 19.1333 14.6656 18.6666C14.6656 18.2 14.2989 17.8333 13.8322 17.8333ZM13.8322 18.8333H6.16557C6.06557 18.8333 5.99889 18.7666 5.99889 18.6666C5.99889 18.5666 6.06557 18.5 6.16557 18.5H13.8322C13.9322 18.5 13.9989 18.5666 13.9989 18.6666C13.9989 18.7666 13.9322 18.8333 13.8322 18.8333Z" fill="white"/>
<path d="M0 12.1667V14.3334C0 15.1667 0.66668 15.8334 1.5 15.8334H18.5C19.3333 15.8334 20 15.1667 20 14.3334V12.1667H0ZM19.3333 14.3333C19.3333 14.8 18.9666 15.1666 18.5 15.1666H1.5C1.03332 15.1666 0.66668 14.8 0.66668 14.3333V12.8333H19.3334V14.3333H19.3333Z" fill="white"/>
<path d="M9.6665 8.16669C9.09982 8.16669 8.6665 8.60001 8.6665 9.16669C8.6665 9.73337 9.09982 10.1667 9.6665 10.1667C10.2332 10.1667 10.6665 9.73337 10.6665 9.16669C10.6665 8.60001 10.2331 8.16669 9.6665 8.16669ZM9.6665 9.50001C9.4665 9.50001 9.33318 9.36669 9.33318 9.16669C9.33318 8.96669 9.4665 8.83337 9.6665 8.83337C9.8665 8.83337 9.99982 8.96669 9.99982 9.16669C9.99982 9.36669 9.8665 9.50001 9.6665 9.50001Z" fill="white"/>
<path d="M11.9002 6.93332C11.7669 6.8 11.5669 6.8 11.4335 6.93332L10.1002 8.26664C9.96691 8.39996 9.96691 8.59996 10.1002 8.73332C10.2336 8.86668 10.4336 8.86664 10.5669 8.73332L11.9002 7.4C12.0335 7.26668 12.0335 7.06668 11.9002 6.93332Z" fill="white"/>
<path d="M9.99833 2.83331C7.06501 2.83331 4.66501 5.23332 4.66501 8.16664C4.66501 8.36664 4.79833 8.49996 4.99833 8.49996H6.33165C6.53165 8.49996 6.66497 8.36664 6.66497 8.16664C6.66497 6.33332 8.16497 4.83332 9.99829 4.83332C11.8316 4.83332 13.3316 6.33332 13.3316 8.16664C13.3316 8.36664 13.4649 8.49996 13.6649 8.49996H14.9983C15.1983 8.49996 15.3316 8.36664 15.3316 8.16664C15.3316 5.23332 12.9316 2.83331 9.99833 2.83331ZM13.9983 7.83332C13.8316 5.76664 12.0983 4.16664 9.99833 4.16664C7.89833 4.16664 6.19833 5.76664 5.99833 7.83332H5.33165C5.49833 5.4 7.53165 3.49999 9.99833 3.49999C12.465 3.49999 14.4983 5.4 14.665 7.83332H13.9983Z" fill="white"/>
</g>
</svg>
