<svg width="24" height="24" viewBox="0 0 24 24" fill="none" xmlns="http://www.w3.org/2000/svg">
<path d="M6 1H2C1.44772 1 1 1.44772 1 2V6C1 6.55228 1.44772 7 2 7H6C6.55228 7 7 6.55228 7 6V2C7 1.44772 6.55228 1 6 1Z" fill="#34AAFF"/>
<path d="M6 9H2C1.44772 9 1 9.44772 1 10V14C1 14.5523 1.44772 15 2 15H6C6.55228 15 7 14.5523 7 14V10C7 9.44772 6.55228 9 6 9Z" fill="#34AAFF"/>
<path d="M6 17H2C1.44772 17 1 17.4477 1 18V22C1 22.5523 1.44772 23 2 23H6C6.55228 23 7 22.5523 7 22V18C7 17.4477 6.55228 17 6 17Z" fill="#34AAFF"/>
<path d="M14 1H10C9.44772 1 9 1.44772 9 2V6C9 6.55228 9.44772 7 10 7H14C14.5523 7 15 6.55228 15 6V2C15 1.44772 14.5523 1 14 1Z" fill="#34AAFF"/>
<path d="M14 9H10C9.44772 9 9 9.44772 9 10V14C9 14.5523 9.44772 15 10 15H14C14.5523 15 15 14.5523 15 14V10C15 9.44772 14.5523 9 14 9Z" fill="#34AAFF"/>
<path d="M14 17H10C9.44772 17 9 17.4477 9 18V22C9 22.5523 9.44772 23 10 23H14C14.5523 23 15 22.5523 15 22V18C15 17.4477 14.5523 17 14 17Z" fill="#34AAFF"/>
<path d="M22 1H18C17.4477 1 17 1.44772 17 2V6C17 6.55228 17.4477 7 18 7H22C22.5523 7 23 6.55228 23 6V2C23 1.44772 22.5523 1 22 1Z" fill="#34AAFF"/>
<path d="M22 9H18C17.4477 9 17 9.44772 17 10V14C17 14.5523 17.4477 15 18 15H22C22.5523 15 23 14.5523 23 14V10C23 9.44772 22.5523 9 22 9Z" fill="#34AAFF"/>
<path d="M22 17H18C17.4477 17 17 17.4477 17 18V22C17 22.5523 17.4477 23 18 23H22C22.5523 23 23 22.5523 23 22V18C23 17.4477 22.5523 17 22 17Z" fill="#34AAFF"/>
</svg>
