<svg width="28" height="28" viewBox="0 0 28 28" fill="none" xmlns="http://www.w3.org/2000/svg">
<rect x="0.5" y="0.5" width="27" height="27" rx="13.5" fill="white" fill-opacity="0.01" stroke="white"/>
<g clip-path="url(#clip0_1_59)">
<path d="M16.3073 15.4667C15.616 15.8727 14.8386 16.118 14 16.118C13.1613 16.118 12.384 15.8727 11.6926 15.4667C9.26265 15.626 7.33331 17.6487 7.33331 20.118V21.2713L7.79665 21.42C7.88598 21.448 10.0253 22.118 14 22.118C17.9746 22.118 20.114 21.448 20.2033 21.42L20.6666 21.2713V20.118C20.6666 17.6487 18.7373 15.626 16.3073 15.4667Z" fill="white"/>
<path d="M14 14.6667C16.2527 14.6667 18 12.158 18 10C18 7.794 16.206 6 14 6C11.794 6 10 7.794 10 10C10 12.158 11.7473 14.6667 14 14.6667Z" fill="white"/>
</g>
<defs>
<clipPath id="clip0_1_59">
<rect width="16" height="16" fill="white" transform="translate(6 6)"/>
</clipPath>
</defs>
</svg>
