<svg width="20" height="20" viewBox="0 0 20 20" fill="none" xmlns="http://www.w3.org/2000/svg">
<g opacity="0.6">
<path d="M0.416656 12.7092V16.0425C0.418194 16.4841 0.594282 16.9071 0.90651 17.2193C1.21874 17.5316 1.64177 17.7076 2.08332 17.7092H17.9167C18.3583 17.7079 18.7814 17.5318 19.0937 17.2196C19.406 16.9073 19.582 16.4841 19.5833 16.0425V12.7092C19.5822 12.2675 19.4063 11.8442 19.094 11.5319C18.7816 11.2196 18.3583 11.0436 17.9167 11.0425H2.08332C1.6417 11.0438 1.21854 11.2198 0.906269 11.5321C0.593994 11.8444 0.417975 12.2676 0.416656 12.7092ZM16.6667 11.8758C16.8315 11.8758 16.9926 11.9247 17.1296 12.0163C17.2667 12.1079 17.3735 12.238 17.4366 12.3903C17.4996 12.5425 17.5161 12.7101 17.484 12.8718C17.4518 13.0334 17.3725 13.1819 17.2559 13.2984C17.1394 13.415 16.9909 13.4943 16.8292 13.5265C16.6676 13.5587 16.5 13.5421 16.3478 13.4791C16.1955 13.416 16.0653 13.3092 15.9738 13.1722C15.8822 13.0351 15.8333 12.874 15.8333 12.7092C15.8333 12.4882 15.9211 12.2762 16.0774 12.1199C16.2337 11.9636 16.4456 11.8758 16.6667 11.8758ZM2.91666 14.5833H17.0833C17.2491 14.5833 17.4081 14.6492 17.5253 14.7664C17.6425 14.8836 17.7083 15.0426 17.7083 15.2083C17.7083 15.3741 17.6425 15.5331 17.5253 15.6503C17.4081 15.7675 17.2491 15.8333 17.0833 15.8333H2.91666C2.7509 15.8333 2.59192 15.7675 2.47471 15.6503C2.3575 15.5331 2.29166 15.3741 2.29166 15.2083C2.29166 15.0426 2.3575 14.8836 2.47471 14.7664C2.59192 14.6492 2.7509 14.5833 2.91666 14.5833Z" fill="white"/>
<path d="M2.08334 9.79251H17.9167C18.3006 9.79272 18.6806 9.87097 19.0333 10.0225C19.069 10.038 19.1083 10.0431 19.1467 10.0373C19.1852 10.0315 19.2212 10.015 19.2507 9.98975C19.2803 9.96448 19.3021 9.93141 19.3138 9.89433C19.3254 9.85725 19.3264 9.81764 19.3167 9.78001L17.9083 4.21918C17.7499 3.67594 17.4234 3.19686 16.9758 2.85072C16.5281 2.50457 15.9823 2.30915 15.4167 2.29251H4.58334C4.01786 2.30933 3.47223 2.50482 3.02475 2.85096C2.57726 3.19709 2.2509 3.67607 2.09251 4.21918L0.683343 9.78001C0.673584 9.81764 0.67459 9.85725 0.686246 9.89433C0.697902 9.93141 0.71974 9.96448 0.749272 9.98975C0.778804 10.015 0.814842 10.0315 0.853279 10.0373C0.891717 10.0431 0.931008 10.038 0.966677 10.0225C1.31947 9.87097 1.69938 9.79272 2.08334 9.79251Z" fill="white"/>
</g>
</svg>
