<svg width="20" height="20" viewBox="0 0 20 20" fill="none" xmlns="http://www.w3.org/2000/svg">
<path d="M19.7225 6.16668C19.8006 6.08855 19.8445 5.98259 19.8445 5.8721C19.8445 5.76162 19.8006 5.65565 19.7225 5.57752L14.4167 0.278351C14.3385 0.200238 14.2326 0.156357 14.1221 0.156357C14.0116 0.156357 13.9056 0.200238 13.8275 0.278351L12.9608 1.14502C12.9219 1.18407 12.9001 1.23696 12.9001 1.2921C12.9001 1.34724 12.9219 1.40013 12.9608 1.43918L13.9925 2.47085C14.0323 2.50929 14.064 2.55526 14.0859 2.6061C14.1077 2.65693 14.1192 2.71161 14.1197 2.76693C14.1202 2.82226 14.1096 2.87713 14.0887 2.92833C14.0677 2.97954 14.0368 3.02606 13.9977 3.06518C13.9586 3.1043 13.912 3.13524 13.8608 3.15619C13.8096 3.17714 13.7548 3.18769 13.6994 3.18721C13.6441 3.18672 13.5894 3.17523 13.5386 3.15339C13.4878 3.13156 13.4418 3.09981 13.4033 3.06002L12.3733 2.02918C12.3541 2.00981 12.3311 1.99443 12.3059 1.98394C12.2807 1.97345 12.2536 1.96805 12.2263 1.96805C12.1989 1.96805 12.1719 1.97345 12.1466 1.98394C12.1214 1.99443 12.0985 2.00981 12.0792 2.02918L11.49 2.61835C11.4706 2.63763 11.4553 2.66055 11.4448 2.68579C11.4343 2.71103 11.4289 2.7381 11.4289 2.76543C11.4289 2.79277 11.4343 2.81983 11.4448 2.84508C11.4553 2.87032 11.4706 2.89324 11.49 2.91252L12.5208 3.94335C12.5967 4.02194 12.6387 4.12719 12.6378 4.23644C12.6368 4.34568 12.593 4.45019 12.5158 4.52744C12.4385 4.6047 12.334 4.64852 12.2248 4.64947C12.1155 4.65041 12.0103 4.60842 11.9317 4.53252L10.9008 3.50002C10.8615 3.46124 10.8086 3.4395 10.7533 3.4395C10.6981 3.4395 10.6451 3.46124 10.6058 3.50002L9.87001 4.23668L11.0475 5.41668C11.0873 5.45512 11.1191 5.5011 11.1409 5.55193C11.1627 5.60277 11.1742 5.65744 11.1747 5.71277C11.1752 5.76809 11.1646 5.82296 11.1437 5.87417C11.1227 5.92537 11.0918 5.97189 11.0527 6.01102C11.0136 6.05014 10.967 6.08108 10.9158 6.10203C10.8646 6.12298 10.8098 6.13352 10.7544 6.13304C10.6991 6.13256 10.6444 6.12106 10.5936 6.09923C10.5428 6.07739 10.4968 6.04565 10.4583 6.00585L9.42751 4.97502C9.38846 4.93609 9.33557 4.91423 9.28043 4.91423C9.22529 4.91423 9.1724 4.93609 9.13335 4.97502L7.93751 6.17085C7.89871 6.20956 7.86792 6.25554 7.84692 6.30616C7.82591 6.35678 7.8151 6.41105 7.8151 6.46585C7.8151 6.52066 7.82591 6.57492 7.84692 6.62555C7.86792 6.67617 7.89871 6.72215 7.93751 6.76085L8.23168 7.05418C8.38359 7.21125 8.46774 7.42169 8.466 7.64019C8.46425 7.85869 8.37676 8.06777 8.22236 8.22238C8.06796 8.377 7.85901 8.46479 7.64051 8.46684C7.42202 8.46889 7.21145 8.38504 7.05418 8.23335L6.75918 7.93835C6.68104 7.86024 6.57508 7.81636 6.4646 7.81636C6.35411 7.81636 6.24815 7.86024 6.17001 7.93835L5.00835 9.10002C4.96937 9.13921 4.94748 9.19224 4.94748 9.24752C4.94748 9.3028 4.96937 9.35583 5.00835 9.39502L6.03918 10.425C6.11508 10.5036 6.15708 10.6089 6.15613 10.7181C6.15518 10.8274 6.11136 10.9319 6.0341 11.0091C5.95685 11.0864 5.85234 11.1302 5.7431 11.1311C5.63385 11.1321 5.5286 11.0901 5.45001 11.0142L4.41668 9.98419C4.39733 9.96478 4.37434 9.94939 4.34903 9.93889C4.32372 9.92838 4.29658 9.92298 4.26918 9.92298C4.24178 9.92298 4.21464 9.92838 4.18933 9.93889C4.16402 9.94939 4.14103 9.96478 4.12168 9.98419L3.53251 10.5734C3.51311 10.5927 3.49772 10.6157 3.48721 10.641C3.47671 10.6663 3.47131 10.6934 3.47131 10.7209C3.47131 10.7483 3.47671 10.7754 3.48721 10.8007C3.49772 10.826 3.51311 10.849 3.53251 10.8684L4.56334 11.8992C4.60314 11.9376 4.63488 11.9836 4.65672 12.0344C4.67856 12.0853 4.69005 12.1399 4.69053 12.1953C4.69101 12.2506 4.68047 12.3055 4.65952 12.3567C4.63857 12.4079 4.60763 12.4544 4.56851 12.4935C4.52939 12.5326 4.48287 12.5636 4.43166 12.5845C4.38045 12.6055 4.32559 12.616 4.27026 12.6155C4.21494 12.6151 4.16026 12.6036 4.10943 12.5817C4.05859 12.5599 4.01261 12.5281 3.97418 12.4884L2.94585 11.4575C2.90665 11.4185 2.85362 11.3967 2.79835 11.3967C2.74307 11.3967 2.69004 11.4185 2.65085 11.4575L2.06168 12.0467C2.02275 12.0857 2.00089 12.1386 2.00089 12.1938C2.00089 12.2489 2.02275 12.3018 2.06168 12.3409L3.09334 13.3725C3.13314 13.411 3.16488 13.4569 3.18672 13.5078C3.20856 13.5586 3.22005 13.6133 3.22053 13.6686C3.22101 13.7239 3.21047 13.7788 3.18952 13.83C3.16857 13.8812 3.13763 13.9277 3.09851 13.9668C3.05939 14.006 3.01287 14.0369 2.96166 14.0579C2.91045 14.0788 2.85559 14.0894 2.80026 14.0889C2.74494 14.0884 2.69026 14.0769 2.63943 14.0551C2.58859 14.0332 2.54261 14.0015 2.50418 13.9617L1.47251 12.93C1.43346 12.8911 1.38057 12.8692 1.32543 12.8692C1.27029 12.8692 1.2174 12.8911 1.17835 12.93L0.277512 13.8334C0.199399 13.9115 0.155518 14.0175 0.155518 14.1279C0.155518 14.2384 0.199399 14.3444 0.277512 14.4225L5.58334 19.7234C5.66148 19.8015 5.76744 19.8453 5.87793 19.8453C5.98841 19.8453 6.09438 19.8015 6.17251 19.7234L19.7225 6.16668ZM14.7142 4.69335C14.8705 4.53713 15.0824 4.44936 15.3033 4.44936C15.5243 4.44936 15.7362 4.53713 15.8925 4.69335L16.4817 5.28252C16.5592 5.35991 16.6206 5.45182 16.6626 5.55298C16.7045 5.65415 16.7261 5.76259 16.7261 5.8721C16.7261 5.98161 16.7045 6.09005 16.6626 6.19122C16.6206 6.29238 16.5592 6.38429 16.4817 6.46168L14.7133 8.23335C14.5571 8.38958 14.3451 8.47734 14.1242 8.47734C13.9032 8.47734 13.6913 8.38958 13.535 8.23335L12.9458 7.64419C12.8684 7.56679 12.8069 7.47488 12.765 7.37372C12.723 7.27255 12.7014 7.16411 12.7014 7.0546C12.7014 6.94509 12.723 6.83665 12.765 6.73548C12.8069 6.63432 12.8684 6.54241 12.9458 6.46502L14.7142 4.69335ZM10.5892 8.81919C10.7455 8.66296 10.9574 8.5752 11.1783 8.5752C11.3993 8.5752 11.6112 8.66296 11.7675 8.81919L12.3567 9.40835C12.5129 9.56462 12.6007 9.77655 12.6007 9.99752C12.6007 10.2185 12.5129 10.4304 12.3567 10.5867L10.5892 12.3542C10.4329 12.5104 10.221 12.5982 10 12.5982C9.77904 12.5982 9.56712 12.5104 9.41085 12.3542L8.82168 11.765C8.66545 11.6087 8.57769 11.3968 8.57769 11.1759C8.57769 10.9549 8.66545 10.743 8.82168 10.5867L10.5892 8.81919ZM4.69668 14.715L6.46418 12.9467C6.54157 12.8692 6.63348 12.8077 6.73464 12.7658C6.83581 12.7239 6.94425 12.7023 7.05376 12.7023C7.16328 12.7023 7.27171 12.7239 7.37288 12.7658C7.47404 12.8077 7.56595 12.8692 7.64335 12.9467L8.23251 13.5367C8.38874 13.693 8.4765 13.9049 8.4765 14.1259C8.4765 14.3468 8.38874 14.5587 8.23251 14.715L6.46501 16.4825C6.30874 16.6387 6.09682 16.7265 5.87584 16.7265C5.65487 16.7265 5.44295 16.6387 5.28668 16.4825L4.69668 15.8934C4.54045 15.7371 4.45269 15.5252 4.45269 15.3042C4.45269 15.0832 4.54045 14.8713 4.69668 14.715Z" fill="white"/>
</svg>
